<?xml version="1.0" encoding="UTF-8"?>
<svg width="25px" height="25px" viewBox="0 0 25 25" version="1.1" xmlns="http://www.w3.org/2000/svg" xmlns:xlink="http://www.w3.org/1999/xlink">
    <title>hamburger icon</title>
    <g id="Symbols" stroke="none" stroke-width="1" fill="none" fill-rule="evenodd">
        <g id="nav-bar/mobile-sticky" transform="translate(-323.000000, -33.000000)" fill="#FCC517">
            <g id="nav-bar" transform="translate(20.000000, 5.000000)">
                <path d="M324.528233,48 C325.908944,48 327.028233,49.1192881 327.028233,50.5 C327.028233,51.8807119 325.908944,53 324.528233,53 L305.528233,53 C304.147521,53 303.028233,51.8807119 303.028233,50.5 C303.028233,49.1192881 304.147521,48 305.528233,48 L324.528233,48 Z M324.528233,38 C325.908944,38 327.028233,39.1192881 327.028233,40.5 C327.028233,41.8807119 325.908944,43 324.528233,43 L305.528233,43 C304.147521,43 303.028233,41.8807119 303.028233,40.5 C303.028233,39.1192881 304.147521,38 305.528233,38 L324.528233,38 Z M324.528233,28 C325.908944,28 327.028233,29.1192881 327.028233,30.5 C327.028233,31.8807119 325.908944,33 324.528233,33 L305.528233,33 C304.147521,33 303.028233,31.8807119 303.028233,30.5 C303.028233,29.1192881 304.147521,28 305.528233,28 L324.528233,28 Z" id="hamburger-icon"></path>
            </g>
        </g>
    </g>
</svg>